<svg width="33" height="34" viewBox="0 0 33 34" fill="none" xmlns="http://www.w3.org/2000/svg">
<path d="M6.76013 0.731343C6.19068 0.685093 5.55763 0.849859 4.97372 1.26033C4.45919 1.61877 3.34919 2.50041 2.31146 3.49767C1.79403 3.99486 1.29974 4.51228 0.918176 5.02103C0.533722 5.52978 0.19841 5.99517 0.218644 6.67158C0.238879 7.27861 0.299582 9.07369 1.59169 11.8256C2.8838 14.5745 5.38997 18.3468 10.278 23.2378C15.169 28.1287 18.9412 30.6349 21.6902 31.927C24.4392 33.2191 26.2372 33.2798 26.8442 33.3C27.5177 33.3202 27.9831 32.9849 28.4919 32.6005C29.0006 32.216 29.518 31.7246 30.0152 31.2072C31.0096 30.1695 31.8912 29.0595 32.2497 28.5449C33.0677 27.38 32.9319 26.0041 32.0213 25.3652C31.449 24.9635 26.1851 21.46 25.3931 20.9744C24.5895 20.483 23.6645 20.7056 22.8378 21.142C22.1874 21.486 20.427 22.4949 19.924 22.7839C19.5454 22.544 18.1087 21.5872 15.0186 18.4971C11.9257 15.407 10.9718 13.9704 10.7318 13.5917C11.0209 13.0888 12.0268 11.337 12.3737 10.6751C12.8073 9.85126 13.0501 8.91759 12.5327 8.10822C12.3159 7.76423 11.3302 6.264 10.3358 4.75798C9.33857 3.25197 8.39333 1.824 8.14763 1.48291V1.48002C7.82677 1.03775 7.32669 0.777593 6.76013 0.731343ZM6.62427 2.24314C6.82661 2.26916 6.94802 2.35009 6.94802 2.35009C7.06654 2.51486 8.10427 4.07002 9.09865 5.57314C10.093 7.07916 11.1076 8.62275 11.284 8.90314C11.3129 8.9465 11.3533 9.43791 11.0643 9.98423V9.98712C10.7376 10.6086 9.21427 13.2709 9.21427 13.2709L9.00325 13.6438L9.22005 14.0138C9.22005 14.0138 10.3561 15.9303 13.9693 19.5435C17.5855 23.1568 19.502 24.2957 19.502 24.2957L19.872 24.5125L20.2449 24.3015C20.2449 24.3015 22.9014 22.781 23.5286 22.4515C24.075 22.1653 24.5664 22.2029 24.6242 22.2376C25.1358 22.5527 30.8217 26.3307 31.1715 26.5764C31.183 26.5851 31.4923 27.0534 31.0414 27.6951H31.0385C30.7668 28.0853 29.8765 29.2156 28.9486 30.181C28.4832 30.6638 28.0062 31.1147 27.6015 31.4182C27.1969 31.7217 26.8355 31.8171 26.8933 31.82C26.2632 31.7998 24.8728 31.7853 22.3204 30.5857C19.7679 29.389 16.1258 26.9927 11.3244 22.1885C6.52599 17.39 4.12966 13.7478 2.93005 11.1925C1.73333 8.64009 1.71888 7.2497 1.69864 6.62244C1.70153 6.68025 1.79693 6.31603 2.10044 5.91134C2.40396 5.50666 2.852 5.02681 3.33474 4.56142C4.3031 3.63353 5.43044 2.74322 5.82068 2.4715V2.47439C6.14154 2.24892 6.42193 2.22002 6.62427 2.24314Z" fill="url(#paint0_linear_1338_2569)"/>
<defs>
<linearGradient id="paint0_linear_1338_2569" x1="16.5043" y1="0.723785" x2="16.5043" y2="33.3009" gradientUnits="userSpaceOnUse">
<stop stop-color="#4ABCEC"/>
<stop offset="1" stop-color="#4A8BEC"/>
</linearGradient>
</defs>
</svg>
