<svg width="62" height="40" viewBox="0 0 62 40" fill="none" xmlns="http://www.w3.org/2000/svg">
<path d="M20.0208 0C8.97893 0 0 8.96959 0 20C0 31.0304 8.97893 40 20.0208 40C31.0627 40 40.0417 31.0304 40.0417 20C40.0417 8.96959 31.0627 0 20.0208 0ZM31 11.6129C31.3303 11.6129 31.6607 11.7387 31.9132 11.9909C32.4183 12.4954 32.4183 13.311 31.9132 13.8155L16.4132 29.2994C16.1614 29.551 15.8307 29.6774 15.5 29.6774C15.1693 29.6774 14.8386 29.551 14.5868 29.2994L8.12842 22.8478C7.62338 22.3433 7.62338 21.5277 8.12842 21.0232C8.63346 20.5187 9.44987 20.5187 9.95492 21.0232L15.5 26.5625L30.0868 11.9909C30.3393 11.7387 30.6697 11.6129 31 11.6129ZM46.5 19.3548C46.1574 19.3548 45.8289 19.4908 45.5867 19.7328C45.3444 19.9747 45.2083 20.3029 45.2083 20.6452C45.2083 20.9874 45.3444 21.3156 45.5867 21.5576C45.8289 21.7995 46.1574 21.9355 46.5 21.9355H62V19.3548H46.5Z" fill="url(#paint0_linear_1425_1417)"/>
<defs>
<linearGradient id="paint0_linear_1425_1417" x1="69.9487" y1="1.1439e-06" x2="26.6668" y2="59.4367" gradientUnits="userSpaceOnUse">
<stop offset="0.25" stop-color="#3B768F"/>
<stop offset="0.536458" stop-color="#3EC6FF"/>
<stop offset="0.817708" stop-color="#3B768F"/>
</linearGradient>
</defs>
</svg>
