<svg width="40" height="40" viewBox="0 0 40 40" fill="none" xmlns="http://www.w3.org/2000/svg">
<path d="M20 0C8.92308 0 0 8.92308 0 20C0 31.0769 8.92308 40 20 40C31.0769 40 40 31.0769 40 20C40 17.8462 39.6935 15.6929 38.9243 13.6929L36.4603 16.1538C36.768 17.3846 36.9231 18.6154 36.9231 20C36.9231 29.3846 29.3846 36.9231 20 36.9231C10.6154 36.9231 3.07692 29.3846 3.07692 20C3.07692 10.6154 10.6154 3.07692 20 3.07692C24.6154 3.07692 28.6148 4.92248 31.6917 7.84555L33.8462 5.69111C30.3077 2.15264 25.3846 0 20 0ZM37.3858 6.92308L20 24.3089L13.3834 17.6923L11.232 20L20 28.768L39.5373 9.23077L37.3858 6.92308Z" fill="url(#paint0_linear_1425_1300)"/>
<defs>
<linearGradient id="paint0_linear_1425_1300" x1="45.1282" y1="1.1439e-06" x2="-0.0178029" y2="39.9977" gradientUnits="userSpaceOnUse">
<stop offset="0.25" stop-color="#3B768F"/>
<stop offset="0.536458" stop-color="#3EC6FF"/>
<stop offset="0.817708" stop-color="#3B768F"/>
</linearGradient>
</defs>
</svg>
