<svg width="36" height="36" viewBox="0 0 36 36" fill="none" xmlns="http://www.w3.org/2000/svg">
<path d="M25.2754 0H10.7246C4.81103 0 0 4.81103 0 10.7246V25.2754C0 31.189 4.81103 36 10.7246 36H25.2754C31.189 36 36 31.189 36 25.2754V10.7246C35.9999 4.81103 31.1889 0 25.2754 0ZM32.3784 25.2754C32.3784 29.1982 29.1982 32.3784 25.2754 32.3784H10.7246C6.80175 32.3784 3.6216 29.1982 3.6216 25.2754V10.7246C3.6216 6.80169 6.80175 3.6216 10.7246 3.6216H25.2754C29.1982 3.6216 32.3784 6.80169 32.3784 10.7246V25.2754Z" fill="url(#paint0_linear_1425_1405)"/>
<path d="M18.0003 8.68921C12.8663 8.68921 8.68945 12.8661 8.68945 18C8.68945 23.134 12.8663 27.3109 18.0003 27.3109C23.1344 27.3109 27.3112 23.1341 27.3112 18C27.3112 12.866 23.1344 8.68921 18.0003 8.68921ZM18.0003 23.6894C14.8582 23.6894 12.3111 21.1422 12.3111 18.0001C12.3111 14.858 14.8583 12.3108 18.0003 12.3108C21.1425 12.3108 23.6896 14.858 23.6896 18.0001C23.6896 21.1422 21.1424 23.6894 18.0003 23.6894Z" fill="url(#paint1_linear_1425_1405)"/>
<path d="M27.3292 10.9901C28.5613 10.9901 29.5602 9.99124 29.5602 8.75909C29.5602 7.52694 28.5613 6.52808 27.3292 6.52808C26.097 6.52808 25.0981 7.52694 25.0981 8.75909C25.0981 9.99124 26.097 10.9901 27.3292 10.9901Z" fill="url(#paint2_linear_1425_1405)"/>
<defs>
<linearGradient id="paint0_linear_1425_1405" x1="37.5" y1="1.5" x2="-6" y2="38" gradientUnits="userSpaceOnUse">
<stop offset="0.161458" stop-color="#3B768F"/>
<stop offset="0.484375" stop-color="#00E0FF"/>
<stop offset="0.838542" stop-color="#3B768F"/>
</linearGradient>
<linearGradient id="paint1_linear_1425_1405" x1="28.0871" y1="9.46511" x2="5.5859" y2="28.3455" gradientUnits="userSpaceOnUse">
<stop offset="0.161458" stop-color="#3B768F"/>
<stop offset="0.484375" stop-color="#00E0FF"/>
<stop offset="0.838542" stop-color="#3B768F"/>
</linearGradient>
<linearGradient id="paint2_linear_1425_1405" x1="29.7461" y1="6.71399" x2="24.3545" y2="11.238" gradientUnits="userSpaceOnUse">
<stop offset="0.161458" stop-color="#3B768F"/>
<stop offset="0.484375" stop-color="#00E0FF"/>
<stop offset="0.838542" stop-color="#3B768F"/>
</linearGradient>
</defs>
</svg>
