<svg width="36" height="36" viewBox="0 0 36 36" fill="none" xmlns="http://www.w3.org/2000/svg">
<path d="M31.4615 29.9309C34.2819 26.7523 36 22.5739 36 18C36 13.2412 34.1404 8.91124 31.1139 5.68924V5.68862C31.1114 5.6849 31.1077 5.68366 31.1059 5.68055C27.9534 2.32945 23.5366 0.184345 18.6238 0.0161379L18.6232 0.0155172L18.2725 0.0062069C18.1819 0.00310345 18.0912 0 18 0C17.9088 0 17.8181 0.00310345 17.7275 0.0062069L17.3781 0.0155172L17.3774 0.0161379C12.4647 0.184345 8.04786 2.32945 4.89538 5.68055C4.8929 5.68366 4.88917 5.6849 4.88731 5.68862C4.88731 5.68862 4.88731 5.68924 4.88669 5.68986C1.85959 8.91124 0 13.2412 0 18C0 22.5739 1.71807 26.7523 4.53848 29.9309C4.54221 29.9365 4.54221 29.9427 4.54655 29.9483C4.55772 29.9638 4.57386 29.9712 4.58566 29.9855C7.7549 33.5284 12.3021 35.8107 17.3768 35.9845L17.3774 35.9851L17.7269 35.9944C17.8181 35.9969 17.9088 36 18 36C18.0912 36 18.1819 35.9969 18.2725 35.9938L18.6219 35.9845L18.6226 35.9839C23.7029 35.8094 28.255 33.5228 31.4243 29.9725C31.4323 29.9619 31.4454 29.9588 31.4528 29.9477C31.4578 29.9427 31.4578 29.9365 31.4615 29.9309ZM1.2569 18.6207H8.70703C8.77717 21.2518 9.2911 23.8084 10.206 26.2037C8.44076 26.8423 6.7531 27.6989 5.17159 28.7677C2.84586 26.0013 1.39841 22.4752 1.2569 18.6207ZM5.51048 6.84186C7.05476 7.84614 8.69897 8.65055 10.4139 9.25138C9.36372 11.8006 8.78276 14.549 8.70703 17.3793H1.2569C1.40524 13.3405 2.98676 9.6629 5.51048 6.84186ZM34.7431 17.3793H27.293C27.2172 14.549 26.6363 11.8006 25.5861 9.25138C27.301 8.65055 28.9452 7.84614 30.4895 6.84186C33.0132 9.6629 34.5948 13.3405 34.7431 17.3793ZM17.3793 9.28738C15.5849 9.23648 13.8234 8.96897 12.1214 8.49103C13.3796 5.91021 15.156 3.58076 17.3793 1.6411V9.28738ZM17.3793 10.5288V17.3793H9.94841C10.0248 14.6806 10.5908 12.0631 11.6032 9.63621C13.469 10.1768 15.4061 10.476 17.3793 10.5288ZM18.6207 10.5288C20.5939 10.476 22.531 10.1774 24.3974 9.63621C25.4098 12.0631 25.9759 14.6806 26.0522 17.3793H18.6207V10.5288ZM18.6207 9.28738V1.6411C20.844 3.58076 22.6204 5.91021 23.8786 8.49103C22.1766 8.96897 20.4151 9.23648 18.6207 9.28738ZM25.0814 8.11365C23.8891 5.61538 22.2343 3.33931 20.1854 1.38848C23.8202 1.86393 27.0906 3.50752 29.6094 5.93069C28.1793 6.83814 26.6623 7.56807 25.0814 8.11365ZM10.9186 8.11365C9.33766 7.56807 7.82069 6.83814 6.39124 5.93069C8.90938 3.50752 12.1804 1.86393 15.8152 1.38848C13.7657 3.33931 12.1109 5.61538 10.9186 8.11365ZM9.94841 18.6207H17.3793V24.8512C15.3267 24.9058 13.3157 25.2261 11.3828 25.8077C10.5095 23.539 10.0186 21.1152 9.94841 18.6207ZM17.3793 26.0926V34.3589C14.9996 32.2827 13.1338 29.7602 11.8651 26.9621C13.6446 26.4377 15.493 26.1459 17.3793 26.0926ZM18.6207 34.3589V26.0926C20.507 26.1453 22.3554 26.4377 24.1349 26.9615C22.8662 29.7602 21.0004 32.2827 18.6207 34.3589ZM18.6207 24.8512V18.6207H26.0516C25.9814 21.1152 25.4905 23.539 24.6166 25.8083C22.6843 25.2261 20.6733 24.9058 18.6207 24.8512ZM27.293 18.6207H34.7431C34.6016 22.4752 33.1548 26.0013 30.8284 28.7677C29.2469 27.6989 27.5592 26.8423 25.794 26.2037C26.7095 23.8084 27.2228 21.2518 27.293 18.6207ZM6.0151 29.6975C7.48365 28.7218 9.04717 27.9372 10.6808 27.3507C11.8881 30.0569 13.621 32.5229 15.8146 34.6115C11.9967 34.1119 8.57979 32.3243 6.0151 29.6975ZM20.1854 34.6115C22.379 32.5235 24.1119 30.0575 25.3192 27.3507C26.9528 27.9372 28.5157 28.7218 29.9849 29.6975C27.4202 32.3243 24.0033 34.1119 20.1854 34.6115Z" fill="url(#paint0_linear_1425_1401)"/>
<defs>
<linearGradient id="paint0_linear_1425_1401" x1="31.9592" y1="2.9492e-07" x2="3.67347" y2="31.9592" gradientUnits="userSpaceOnUse">
<stop offset="0.24082" stop-color="#3B768F"/>
<stop offset="0.5" stop-color="#00E0FF"/>
<stop offset="0.734375" stop-color="#3B768F"/>
</linearGradient>
</defs>
</svg>
