<svg width="400" height="35" viewBox="0 0 400 35" fill="none" xmlns="http://www.w3.org/2000/svg">
<path d="M13.7374 10.6159L9.99818 26.2274H18.9453L20.1581 21.2317H29.1254L26.8415 30.5761L21.8761 34.9473H2.86336L0 30.5987L4.79023 10.6159H13.7374ZM5.23489 8.74248L6.28592 4.37124L11.2311 0H30.264L33.1274 4.37124L30.8906 13.7382H21.9232L23.1292 8.76505L5.23489 8.74248Z" fill="#00E0FF"/>
<path d="M51.4943 17.5602L51.117 18.0643L47.0746 34.9699H38.1207L42.1631 18.0643L37.5615 0H47.0679L51.4943 17.5602ZM50.3085 6.27472L54.8966 0H64.403L52.7272 15.8598L50.3085 6.27472Z" fill="#00E0FF"/>
<path d="M66.7743 8.74248L68.8763 0H91.7832L94.6466 4.37124L92.0931 14.9871L89.2769 17.485L90.9545 19.9828L88.4078 30.5761L83.4357 34.9473H60.5288L66.3701 10.5933H75.3172L74.7109 13.0911H83.685L84.709 8.74248H66.7743ZM71.5376 26.2274H80.4847L81.5223 21.8562H72.5886L71.5376 26.2274Z" fill="#00E0FF"/>
<path d="M106.59 10.6159L105.99 13.1137H114.958L112.855 21.8562H103.908L102.857 26.2274H118.535L116.413 34.9699H91.8081L97.6898 10.6159H106.59ZM98.1142 8.74248L100.216 0H124.821L122.699 8.74248H98.1142Z" fill="#00E0FF"/>
<path d="M127.194 8.74248L129.296 0H152.203L155.066 4.37124L151.933 17.4624L147.392 21.4574L148.847 35H138.789L137.441 21.8562H133.035L129.875 34.9699H120.908L126.749 10.6159H135.696L135.09 13.1137H144.064L145.095 8.76505L127.194 8.74248Z" fill="#00E0FF"/>
<path d="M191.374 8.74248H182.427L186.9 0H200.321L201.446 34.9699H192.492L192.223 26.2274H182.427L177.953 34.9699H169.006L181.463 10.6159H190.417L186.927 17.485H191.96L191.643 8.21582L191.374 8.74248Z" fill="#00E0FF"/>
<path d="M220.703 10.6159L214.868 34.9699H205.915L211.756 10.6159H220.703ZM212.227 8.74248L214.309 0H228.289L233.787 21.4349L238.914 0H247.861L239.473 34.9699H227.723L221.148 8.74248H212.227Z" fill="#00E0FF"/>
<path d="M252.483 34.9699H243.536L251.924 0H260.871L252.483 34.9699Z" fill="#00E0FF"/>
<path d="M279.18 34.9699H270.226L269.761 20.5847L266.312 34.9699H257.365L265.753 0H278.055L278.729 20.5847L279.18 34.9699ZM280.319 17.485L289.246 0H301.548L293.16 34.9699H284.213L287.683 20.5847L280.831 33.9467L280.319 17.485Z" fill="#00E0FF"/>
<path d="M318.886 8.74248H309.919L314.413 0H327.834L328.952 34.9699H320.025L319.756 26.2274H309.919L305.445 34.9699H296.519L308.976 10.6159H317.923L314.433 17.485H319.466L319.156 8.21582L318.886 8.74248Z" fill="#00E0FF"/>
<path d="M341.838 0H350.765L344.473 26.2274H362.394L360.272 34.9699H333.423L341.838 0Z" fill="#00E0FF"/>
<path d="M379.552 10.6159L378.946 13.1137H392.926L395.816 17.485L392.656 30.5987L387.691 34.9699H364.784L366.886 26.2274H384.78L385.832 21.8562H371.831L368.968 17.485L370.605 10.6159H379.552ZM371.05 8.74248L372.101 4.37124L377.046 0H400L397.891 8.74248H371.05Z" fill="#00E0FF"/>
</svg>
