<svg width="36" height="36" viewBox="0 0 36 36" fill="none" xmlns="http://www.w3.org/2000/svg">
<path d="M33.3353 0.00335332C32.87 0.0274449 32.4318 0.178017 32.0423 0.346658H32.0369C31.642 0.521322 29.7647 1.40067 26.9137 2.73173C24.0628 4.06881 20.3624 5.80341 16.6891 7.52595C9.35334 10.965 2.14199 14.3499 2.14199 14.3499L2.22855 14.3138C2.22855 14.3138 1.73084 14.4944 1.21149 14.892C0.946411 15.0847 0.654277 15.3497 0.400015 15.7653C0.145751 16.1809 -0.0598244 16.8193 0.0159144 17.4758C0.140342 18.59 0.789525 19.2586 1.25477 19.626C1.72543 19.9994 2.17445 20.174 2.17445 20.174H2.18527L8.9476 22.7097C9.25055 23.7938 11.0088 30.2263 11.4307 31.7079C11.6796 32.5933 11.923 33.1474 12.226 33.569C12.372 33.7858 12.5452 33.9665 12.7507 34.111C12.8319 34.1652 12.9184 34.2074 13.005 34.2435C13.032 34.2616 13.0591 34.2676 13.0915 34.2737L13.0212 34.2556C13.0429 34.2616 13.0591 34.2797 13.0753 34.2857C13.1294 34.3038 13.1673 34.3098 13.2376 34.3218C14.3088 34.6832 15.1689 33.9424 15.1689 33.9424L15.2176 33.9002L19.2101 29.8528L25.9021 35.5686L26.0536 35.6409C27.4493 36.3214 28.8613 35.942 29.6079 35.2735C30.3598 34.5989 30.652 33.7376 30.652 33.7376L30.7007 33.5991L35.8725 4.10495C36.0185 3.37618 36.0564 2.69559 35.8941 2.03307C35.7318 1.37055 35.3153 0.750193 34.8121 0.418933C34.3036 0.0816507 33.8005 -0.0207383 33.3353 0.00335332ZM33.1946 3.16538C33.1892 3.26174 33.2054 3.2497 33.1675 3.4364V3.45447L28.0444 32.6414C28.0228 32.6836 27.9849 32.7739 27.8821 32.8643C27.7739 32.9607 27.6874 33.0209 27.2383 32.8221L19.0532 25.8356L14.1086 30.8526L15.1473 23.4686C15.1473 23.4686 27.9687 10.164 28.5205 9.59181C29.0723 9.01963 28.8883 8.89917 28.8883 8.89917C28.9262 8.20052 28.0552 8.6944 28.0552 8.6944L11.1927 20.3246L11.1873 20.2945L3.10495 17.265V17.259C3.09953 17.259 3.08872 17.2529 3.08331 17.2529C3.08872 17.2529 3.12659 17.2349 3.12659 17.2349L3.16986 17.2108L3.21314 17.1927C3.21314 17.1927 10.4299 13.8078 17.7657 10.3688C21.439 8.64621 25.1393 6.91162 27.9849 5.57453C30.8305 4.24347 32.9349 3.26776 33.0539 3.21356C33.1675 3.16538 33.1134 3.16538 33.1946 3.16538Z" fill="url(#paint0_linear_1425_1412)"/>
<defs>
<linearGradient id="paint0_linear_1425_1412" x1="40.7755" y1="2.02087e-06" x2="3.30612" y2="36" gradientUnits="userSpaceOnUse">
<stop offset="0.192708" stop-color="#3B768F"/>
<stop offset="0.463542" stop-color="#00E0FF"/>
<stop offset="0.713542" stop-color="#3B768F"/>
</linearGradient>
</defs>
</svg>
